<svg width="18" height="18" viewBox="0 0 18 18" fill="none" xmlns="http://www.w3.org/2000/svg">
<path d="M16 0C17.1 0 18 0.9 18 2V16C18 17.1 17.1 18 16 18H2C0.9 18 0 17.1 0 16V2C0 0.9 0.9 0 2 0H16ZM14.2998 5.30176C13.9132 4.91519 13.287 4.91526 12.9004 5.30176L7 11.2012L5.09961 9.30176C4.713 8.91526 4.08676 8.91519 3.7002 9.30176C3.31363 9.68832 3.31369 10.3146 3.7002 10.7012L6.47852 13.4795C6.76666 13.7676 7.23334 13.7676 7.52148 13.4795L14.2998 6.70117C14.6863 6.31456 14.6864 5.68832 14.2998 5.30176Z" fill="#603AE5"/>
</svg>
