<svg width="40" height="40" viewBox="0 0 40 40" fill="none" xmlns="http://www.w3.org/2000/svg">
<circle cx="20" cy="20" r="9" stroke="white" stroke-width="2" stroke-linecap="round" stroke-linejoin="round"/>
<path d="M21.5 24C21.5 24.8284 20.8284 25.5 20 25.5C19.1716 25.5 18.5 24.8284 18.5 24C18.5 23.1716 19.1716 22.5 20 22.5C20.8284 22.5 21.5 23.1716 21.5 24Z" fill="white"/>
<path d="M18.5858 15.5857C18.9754 15.1961 19.4858 15.0008 19.9965 14.9999C20.5095 14.999 21.0228 15.1943 21.4142 15.5857C21.8047 15.9762 22 16.4881 22 16.9999C22 17.5118 21.8047 18.0236 21.4142 18.4141C21.0228 18.8056 20.5095 19.0008 19.9965 18.9999L20 19.9999" stroke="white" stroke-width="2" stroke-linecap="round" stroke-linejoin="round"/>
</svg>
