<svg width="13" height="19" viewBox="0 0 13 19" fill="none" xmlns="http://www.w3.org/2000/svg">
<path fill-rule="evenodd" clip-rule="evenodd" d="M7.82765 4.60008e-06C6.57774 -0.00165991 5.36933 0.448444 4.42507 1.26739C3.48081 2.08633 2.86432 3.21893 2.68918 4.45652C2.51405 5.69411 2.79208 6.9533 3.47203 8.00208C4.15199 9.05087 5.18807 9.81859 6.38937 10.1638C4.68229 10.3711 3.21827 10.9744 2.11454 12.0625C0.710565 13.445 0 15.5052 0 18.193C0 18.3732 0.0715489 18.5459 0.198907 18.6733C0.326265 18.8006 0.499 18.8722 0.679111 18.8722C0.859223 18.8722 1.03196 18.8006 1.15932 18.6733C1.28667 18.5459 1.35822 18.3732 1.35822 18.193C1.35822 15.7339 2.00588 14.0755 3.06815 13.0289C4.13186 11.981 5.72169 11.4377 7.82765 11.4377C9.93361 11.4377 10.1045 11.0152 11.1696 12.0632C12.2304 13.1111 9.82925 8.26372 9.82925 10.7228C9.82925 10.9029 10.9239 11.8854 11.0513 12.0127C11.1696 9.82925 10.5427 11.1696 10.7228 11.1696C10.9029 11.1696 10.9239 12.1401 11.0513 12.0127C11.1786 11.8854 10.532 11.6178 10.532 11.4377C10.532 8.74982 12.425 13.2739 11.0196 11.8899C9.91869 10.8034 10.7228 10.7228 9.26594 10.1638C10.4632 9.81471 11.4946 9.04581 12.171 7.99804C12.8474 6.95027 13.1236 5.69381 12.9488 4.45897C12.7741 3.22413 12.1602 2.09363 11.2196 1.27467C10.279 0.455722 9.07479 0.00318358 7.82765 4.60008e-06ZM4.00318 5.1827C4.00318 4.16839 4.40612 3.19562 5.12334 2.47839C5.84057 1.76116 6.81334 1.35823 7.82765 1.35823C8.84197 1.35823 9.81474 1.76116 10.532 2.47839C11.2492 3.19562 11.6521 4.16839 11.6521 5.1827C11.6521 6.19701 11.2492 7.16978 10.532 7.88701C9.81474 8.60424 8.84197 9.00717 7.82765 9.00717C6.81334 9.00717 5.84057 8.60424 5.12334 7.88701C4.40612 7.16978 4.00318 6.19701 4.00318 5.1827Z" fill="white"/>
</svg>
