<svg width="12" height="11" viewBox="0 0 12 11" fill="none" xmlns="http://www.w3.org/2000/svg">
<path d="M10.1292 1.83334H8.34167V1.22222C8.34167 0.89807 8.21612 0.587192 7.99264 0.357981C7.76916 0.12877 7.46606 0 7.15001 0H4.76667C4.45062 0 4.14752 0.12877 3.92403 0.357981C3.70055 0.587192 3.575 0.89807 3.575 1.22222V1.83334H1.7875C1.31343 1.83334 0.858769 2.02649 0.523547 2.37031C0.188326 2.71412 0 3.18044 0 3.66667V9.16668C0 9.65291 0.188326 10.1192 0.523547 10.463C0.858769 10.8069 1.31343 11 1.7875 11H10.1292C10.6033 11 11.0579 10.8069 11.3931 10.463C11.7284 10.1192 11.9167 9.65291 11.9167 9.16668V3.66667C11.9167 3.18044 11.7284 2.71412 11.3931 2.37031C11.0579 2.02649 10.6033 1.83334 10.1292 1.83334ZM10.725 9.16668C10.725 9.32875 10.6622 9.48419 10.5505 9.5988C10.4388 9.7134 10.2872 9.77779 10.1292 9.77779H1.7875C1.62948 9.77779 1.47792 9.7134 1.36618 9.5988C1.25444 9.48419 1.19167 9.32875 1.19167 9.16668V5.73834L3.98017 6.72223C4.04344 6.73103 4.10757 6.73103 4.17084 6.72223H7.74584C7.81046 6.721 7.87461 6.71072 7.93651 6.69167L10.725 5.73834V9.16668ZM10.725 4.44889L7.65051 5.50001H4.26617L1.19167 4.44889V3.66667C1.19167 3.50459 1.25444 3.34915 1.36618 3.23455C1.47792 3.11994 1.62948 3.05556 1.7875 3.05556H10.1292C10.2872 3.05556 10.4388 3.11994 10.5505 3.23455C10.6622 3.34915 10.725 3.50459 10.725 3.66667V4.44889Z" fill="white"/>
</svg>
